<?xml version="1.0" encoding="UTF-8"?>
<svg version="1.1" xmlns="http://www.w3.org/2000/svg" width="200" height="200">
<path d="M0 0 C0.96786 -0.00807831 0.96786 -0.00807831 1.95527273 -0.01631981 C4.10942109 -0.03058537 6.26295371 -0.02349958 8.41712952 -0.01637268 C9.96476738 -0.02207702 11.51240104 -0.02904152 13.06002808 -0.03717041 C17.25840877 -0.05511015 21.45658054 -0.05393192 25.65498805 -0.04822803 C29.16148685 -0.04513731 32.66794546 -0.05122733 36.17443854 -0.05726677 C44.44742684 -0.0713131 52.72031188 -0.06974986 60.99330139 -0.05836487 C69.52475611 -0.04688354 78.05589648 -0.06095922 86.58730978 -0.08776134 C93.91570401 -0.10992108 101.24399959 -0.11655511 108.57242495 -0.11068493 C112.94779364 -0.10731479 117.32296083 -0.10973414 121.69830132 -0.12693596 C125.81309681 -0.14240744 129.92742679 -0.13844759 134.0422039 -0.11963081 C135.55065319 -0.11594545 137.05913698 -0.11905195 138.56755447 -0.1295166 C140.63045097 -0.14273321 142.69180778 -0.13117617 144.75463867 -0.11352539 C146.48432089 -0.11321146 146.48432089 -0.11321146 148.24894619 -0.1128912 C153.19253609 0.66239817 156.21254901 2.83470713 159.29158115 6.72773075 C160.69493508 9.97586236 160.82103434 12.40932298 160.82849121 15.9468689 C160.83656952 16.9147289 160.83656952 16.9147289 160.84481102 17.90214163 C160.85907658 20.05628998 160.85199079 22.20982261 160.84486389 24.36399841 C160.85056823 25.91163628 160.85753274 27.45926994 160.86566162 29.00689697 C160.88360136 33.20527766 160.88242313 37.40344944 160.87671924 41.60185695 C160.87362852 45.10835575 160.87971854 48.61481435 160.88575798 52.12130743 C160.89980431 60.39429574 160.89824107 68.66718078 160.88685608 76.94017029 C160.87537476 85.47162501 160.88945043 94.00276538 160.91625255 102.53417867 C160.93841229 109.86257291 160.94504632 117.19086849 160.93917614 124.51929384 C160.935806 128.89466254 160.93822535 133.26982973 160.95542717 137.64517021 C160.97089865 141.75996571 160.96693881 145.87429568 160.94812202 149.9890728 C160.94443666 151.49752209 160.94754316 153.00600588 160.95800781 154.51442337 C160.97122442 156.57731986 160.95966738 158.63867667 160.9420166 160.70150757 C160.94180732 161.85462905 160.94159803 163.00775053 160.94138241 164.19581509 C160.16609304 169.13940499 157.99378408 172.15941791 154.10076046 175.23845005 C150.85262885 176.64180398 148.41916823 176.76790324 144.88162231 176.77536011 C143.91376231 176.78343841 143.91376231 176.78343841 142.92634958 176.79167992 C140.77220123 176.80594548 138.6186686 176.79885969 136.4644928 176.79173279 C134.91685493 176.79743712 133.36922127 176.80440163 131.82159424 176.81253052 C127.62321355 176.83047026 123.42504177 176.82929203 119.22663426 176.82358813 C115.72013546 176.82049742 112.21367686 176.82658744 108.70718378 176.83262688 C100.43419547 176.84667321 92.16131043 176.84510997 83.88832092 176.83372498 C75.3568662 176.82224365 66.82572583 176.83631933 58.29431254 176.86312145 C50.9659183 176.88528119 43.63762272 176.89191522 36.30919737 176.88604504 C31.93382867 176.8826749 27.55866148 176.88509424 23.183321 176.90229607 C19.06852551 176.91776754 14.95419553 176.9138077 10.83941841 176.89499092 C9.33096912 176.89130555 7.82248533 176.89441206 6.31406784 176.90487671 C4.25117135 176.91809331 2.18981454 176.90653628 0.12698364 176.8888855 C-1.60269858 176.88857157 -1.60269858 176.88857157 -3.36732388 176.8882513 C-8.31091378 176.11296193 -11.3309267 173.94065297 -14.40995884 170.04762936 C-15.81331277 166.79949775 -15.93941203 164.36603713 -15.9468689 160.82849121 C-15.95225443 160.18325121 -15.95763997 159.53801121 -15.96318871 158.87321848 C-15.97745427 156.71907012 -15.97036848 154.5655375 -15.96324158 152.41136169 C-15.96894591 150.86372383 -15.97591042 149.31609017 -15.98403931 147.76846313 C-16.00197905 143.57008244 -16.00080082 139.37191067 -15.99509692 135.17350316 C-15.99200621 131.66700436 -15.99809623 128.16054576 -16.00413567 124.65405267 C-16.01818199 116.38106437 -16.01661876 108.10817933 -16.00523376 99.83518982 C-15.99375244 91.3037351 -16.00782812 82.77259473 -16.03463024 74.24118143 C-16.05678998 66.9127872 -16.06342401 59.58449162 -16.05755383 52.25606626 C-16.05418369 47.88069757 -16.05660303 43.50553038 -16.07380486 39.1301899 C-16.08927633 35.0153944 -16.08531649 30.90106442 -16.06649971 26.78628731 C-16.06281434 25.27783802 -16.06592085 23.76935423 -16.0763855 22.26093674 C-16.0896021 20.19804024 -16.07804507 18.13668343 -16.06039429 16.07385254 C-16.060185 14.92073106 -16.05997572 13.76760958 -16.05976009 12.57954502 C-15.28447072 7.63595512 -13.11216176 4.6159422 -9.21913815 1.53691006 C-5.97100654 0.13355613 -3.53754592 0.00745687 0 0 Z " fill="#6979DB" transform="translate(27.559188842773438,11.612319946289063)"/>
<path d="M0 0 C0.99447144 0.00012085 1.98894287 0.0002417 3.0135498 0.00036621 C4.57752502 0.00804016 4.57752502 0.00804016 6.1730957 0.01586914 C7.61344177 0.01737976 7.61344177 0.01737976 9.08288574 0.0189209 C12.67156162 0.02415489 16.26022048 0.03811614 19.84887695 0.05102539 C27.87200195 0.07165039 35.89512695 0.09227539 44.16137695 0.11352539 C44.16137695 19.25352539 44.16137695 38.39352539 44.16137695 58.11352539 C25.02137695 58.11352539 5.88137695 58.11352539 -13.83862305 58.11352539 C-13.96237305 50.00790039 -14.08612305 41.90227539 -14.21362305 33.55102539 C-14.26824707 31.00440186 -14.32287109 28.45777832 -14.37915039 25.83398438 C-14.39668463 23.80088189 -14.41197145 21.76775826 -14.42456055 19.73461914 C-14.45525635 18.69084106 -14.48595215 17.64706299 -14.51757812 16.57165527 C-14.52201431 10.36617542 -13.80120646 6.85086117 -9.42349243 2.33387756 C-6.42959866 0.02857417 -3.62624129 -0.00932196 0 0 Z " fill="#FDA902" transform="translate(38.838623046875,24.886474609375)"/>
<path d="M0 0 C7.775625 -0.061875 15.55125 -0.12375 23.5625 -0.1875 C26.00470947 -0.21481201 28.44691895 -0.24212402 30.96313477 -0.27026367 C32.91422024 -0.27903135 34.86531123 -0.28667462 36.81640625 -0.29296875 C37.81700073 -0.30831665 38.81759521 -0.32366455 39.84851074 -0.33947754 C45.66215519 -0.34164223 49.96090587 -0.02526777 55 3 C58.71504535 6.81996076 58.34128048 11.18659179 58.33947754 16.23181152 C58.32412964 17.28582153 58.30878174 18.33983154 58.29296875 19.42578125 C58.28994751 20.40365601 58.28692627 21.38153076 58.28381348 22.38903809 C58.26815669 26.03029993 58.22627271 29.67141093 58.1875 33.3125 C58.125625 41.459375 58.06375 49.60625 58 58 C38.86 58 19.72 58 0 58 C0 38.86 0 19.72 0 0 Z " fill="#FDF971" transform="translate(117,25)"/>
<path d="M0 0 C19.14 0 38.28 0 58 0 C58.061875 7.775625 58.12375 15.55125 58.1875 23.5625 C58.22846802 27.22581421 58.22846802 27.22581421 58.27026367 30.96313477 C58.27903135 32.91422024 58.28667462 34.86531123 58.29296875 36.81640625 C58.30831665 37.81700073 58.32366455 38.81759521 58.33947754 39.84851074 C58.34163628 45.64616703 58.09889854 50.01201617 55 55 C49.8294844 58.99974642 43.93720351 58.38622263 37.6953125 58.29296875 C36.73810303 58.28994751 35.78089355 58.28692627 34.79467773 58.28381348 C31.23800794 58.26818317 27.68149251 58.22629935 24.125 58.1875 C12.183125 58.0946875 12.183125 58.0946875 0 58 C0 38.86 0 19.72 0 0 Z " fill="#FDA901" transform="translate(117,117)"/>
<path d="M0 0 C1.2114267 -0.00845947 2.42285339 -0.01691895 3.67098999 -0.02563477 C5.01544323 -0.01980171 6.35989516 -0.01365719 7.7043457 -0.00723267 C9.11862595 -0.01129724 10.53290303 -0.01663849 11.94717407 -0.02316284 C15.79012949 -0.03685594 19.63284367 -0.03152968 23.47580338 -0.02202559 C27.49429228 -0.01443926 31.5127603 -0.02147173 35.53125 -0.02618408 C42.28006709 -0.03164464 49.02878574 -0.02444218 55.77758789 -0.01016235 C63.58420672 0.00616478 71.39059051 0.00087648 79.19720364 -0.01564157 C85.89536523 -0.02924792 92.59345599 -0.03118029 99.29162693 -0.02332556 C103.29409705 -0.01864434 107.29645663 -0.01803646 111.29891968 -0.02793503 C115.06151731 -0.0365901 118.82381141 -0.03060983 122.58637619 -0.01325226 C123.96868765 -0.00927956 125.35102457 -0.01043485 126.73332596 -0.01704025 C128.61729277 -0.02521405 130.50131529 -0.01315567 132.38525391 0 C133.44049759 0.00113108 134.49574127 0.00226215 135.58296204 0.00342751 C138.19262695 0.38095093 138.19262695 0.38095093 140.03215027 1.71726036 C141.84163608 4.31138785 141.57614781 6.31278404 141.19262695 9.38095093 C140.03215027 11.04464149 140.03215027 11.04464149 138.19262695 12.38095093 C135.58296204 12.75847435 135.58296204 12.75847435 132.38525391 12.76190186 C131.17382721 12.77036133 129.96240051 12.7788208 128.71426392 12.78753662 C127.36981067 12.78170357 126.02535875 12.77555905 124.6809082 12.76913452 C123.26662795 12.7731991 121.85235088 12.77854034 120.43807983 12.7850647 C116.59512442 12.7987578 112.75241024 12.79343154 108.90945053 12.78392744 C104.89096163 12.77634112 100.87249361 12.78337359 96.85400391 12.78808594 C90.10518682 12.7935465 83.35646816 12.78634404 76.60766602 12.77206421 C68.80104719 12.75573707 60.9946634 12.76102537 53.18805027 12.77754343 C46.48988868 12.79114977 39.79179792 12.79308214 33.09362698 12.78522742 C29.09115686 12.78054619 25.08879728 12.77993831 21.08633423 12.78983688 C17.3237366 12.79849196 13.5614425 12.79251169 9.79887772 12.77515411 C8.41656626 12.77118141 7.03422933 12.77233671 5.65192795 12.77894211 C3.76796113 12.7871159 1.88393861 12.77505752 0 12.76190186 C-1.58286552 12.76020524 -1.58286552 12.76020524 -3.19770813 12.75847435 C-5.80737305 12.38095093 -5.80737305 12.38095093 -7.64689636 11.04464149 C-9.45638217 8.450514 -9.19089391 6.44911781 -8.80737305 3.38095093 C-6.38341527 -0.09410009 -4.06183334 0.00435373 0 0 Z " fill="#33EBFE" transform="translate(33.807373046875,93.61904907226563)"/>
<path d="M0 0 C11.22 0 22.44 0 34 0 C34 11.22 34 22.44 34 34 C22.78 34 11.56 34 0 34 C0 22.78 0 11.56 0 0 Z " fill="#6879DD" transform="translate(129,129)"/>
<path d="M0 0 C11.22 0 22.44 0 34 0 C34 11.22 34 22.44 34 34 C22.78 34 11.56 34 0 34 C0 22.78 0 11.56 0 0 Z " fill="#6879DD" transform="translate(129,37)"/>
<path d="M0 0 C11.22 0 22.44 0 34 0 C34 11.22 34 22.44 34 34 C22.78 34 11.56 34 0 34 C0 22.78 0 11.56 0 0 Z " fill="#6879DD" transform="translate(37,37)"/>
<path d="M0 0 C1.6622467 1.1895752 1.6622467 1.1895752 3 3 C3.38768005 5.42858887 3.38768005 5.42858887 3.40405273 8.34179688 C3.41673691 9.43302856 3.42942108 10.52426025 3.44248962 11.64855957 C3.43955399 12.82672241 3.43661835 14.00488525 3.43359375 15.21875 C3.4388356 16.42817261 3.44407745 17.63759521 3.44947815 18.88366699 C3.45590587 21.44245638 3.45455173 24.00127528 3.44604492 26.56005859 C3.43753344 30.48458204 3.46629145 34.40765165 3.49804688 38.33203125 C3.49965882 40.81510373 3.49908149 43.2981788 3.49609375 45.78125 C3.50732773 46.95941284 3.51856171 48.13757568 3.53013611 49.35144043 C3.52075516 50.44267212 3.51137421 51.53390381 3.50170898 52.65820312 C3.50145973 54.10024109 3.50145973 54.10024109 3.50120544 55.57141113 C3 58 3 58 1.12879944 59.8104248 C-1.51142966 61.28578739 -3.01863012 61.45867229 -6 61 C-8.30323125 59.3171202 -8.93437631 58.4183556 -9.38095093 55.57141113 C-9.38333771 54.61005249 -9.38572449 53.64869385 -9.38818359 52.65820312 C-9.39764008 51.56697144 -9.40709656 50.47573975 -9.4168396 49.35144043 C-9.41076691 48.17327759 -9.40469421 46.99511475 -9.3984375 45.78125 C-9.40274277 43.96711609 -9.40274277 43.96711609 -9.40713501 42.11633301 C-9.40917786 39.55753105 -9.40363268 36.99871355 -9.39111328 34.43994141 C-9.37506379 30.51559646 -9.39095562 26.59228153 -9.41015625 22.66796875 C-9.40817386 20.18489355 -9.40433027 17.701819 -9.3984375 15.21875 C-9.40754654 13.45150574 -9.40754654 13.45150574 -9.4168396 11.64855957 C-9.40738312 10.55732788 -9.39792664 9.46609619 -9.38818359 8.34179688 C-9.38579681 7.38043823 -9.38341003 6.41907959 -9.38095093 5.42858887 C-9 3 -9 3 -7.66323853 1.1895752 C-5.0765018 -0.6605009 -3.08279819 -0.38534977 0 0 Z " fill="#33EAFE" transform="translate(103,114)"/>
<path d="M0 0 C2.28491418 1.64997124 2.92663353 2.54690635 3.38095093 5.35266113 C3.38333771 6.27848999 3.38572449 7.20431885 3.38818359 8.15820312 C3.39764008 9.20939331 3.40709656 10.2605835 3.4168396 11.34362793 C3.41076691 12.47804321 3.40469421 13.6124585 3.3984375 14.78125 C3.40274277 16.52879578 3.40274277 16.52879578 3.40713501 18.31164551 C3.40917767 20.77629075 3.40363379 23.24095212 3.39111328 25.70556641 C3.37506341 29.48506815 3.39095614 33.2635004 3.41015625 37.04296875 C3.40817386 39.4348982 3.40433026 41.82682699 3.3984375 44.21875 C3.40754654 45.92037292 3.40754654 45.92037292 3.4168396 47.65637207 C3.40738312 48.70756226 3.39792664 49.75875244 3.38818359 50.84179688 C3.38579681 51.76762573 3.38341003 52.69345459 3.38095093 53.64733887 C2.92663353 56.45309365 2.28491418 57.35002876 0 59 C-5.11464225 59.63933028 -5.11464225 59.63933028 -7.66323853 57.7989502 C-9.45832398 55.38320932 -9.38046233 53.83686625 -9.38818359 50.84179688 C-9.39764008 49.79060669 -9.40709656 48.7394165 -9.4168396 47.65637207 C-9.41076691 46.52195679 -9.40469421 45.3875415 -9.3984375 44.21875 C-9.40130768 43.05371948 -9.40417786 41.88868896 -9.40713501 40.68835449 C-9.40917767 38.22370925 -9.40363379 35.75904788 -9.39111328 33.29443359 C-9.37506341 29.51493185 -9.39095614 25.7364996 -9.41015625 21.95703125 C-9.40817386 19.5651018 -9.40433026 17.17317301 -9.3984375 14.78125 C-9.40451019 13.64683472 -9.41058289 12.51241943 -9.4168396 11.34362793 C-9.40738312 10.29243774 -9.39792664 9.24124756 -9.38818359 8.15820312 C-9.38579681 7.23237427 -9.38341003 6.30654541 -9.38095093 5.35266113 C-8.49725567 -0.10482781 -4.97971432 -0.62246429 0 0 Z " fill="#33EAFE" transform="translate(103,25)"/>
<path d="M0 0 C1.02802734 0.00966797 2.05605469 0.01933594 3.11523438 0.02929688 C4.72301758 0.06700195 4.72301758 0.06700195 6.36328125 0.10546875 C7.44673828 0.11900391 8.53019531 0.13253906 9.64648438 0.14648438 C12.3234153 0.18186232 14.99934963 0.23122686 17.67578125 0.29296875 C17.79175778 4.06354422 17.86295521 7.83366268 17.92578125 11.60546875 C17.97605469 13.21325195 17.97605469 13.21325195 18.02734375 14.85351562 C18.04023437 15.88154297 18.053125 16.90957031 18.06640625 17.96875 C18.08735352 18.91661377 18.10830078 19.86447754 18.12988281 20.84106445 C17.67578125 23.29296875 17.67578125 23.29296875 15.9152832 25.10302734 C13.51256485 26.37969247 12.14920148 26.6675052 9.453125 26.65625 C8.66744141 26.65560547 7.88175781 26.65496094 7.07226562 26.65429688 C5.85506836 26.63012695 5.85506836 26.63012695 4.61328125 26.60546875 C3.79794922 26.60869141 2.98261719 26.61191406 2.14257812 26.61523438 C-3.92305778 26.5604094 -3.92305778 26.5604094 -7.32421875 24.29296875 C-8.66936872 20.25751883 -8.54764008 16.51897729 -8.57421875 12.29296875 C-8.59484375 11.473125 -8.61546875 10.65328125 -8.63671875 9.80859375 C-8.641875 9.0196875 -8.64703125 8.23078125 -8.65234375 7.41796875 C-8.66168945 6.69867188 -8.67103516 5.979375 -8.68066406 5.23828125 C-7.77145413 0.27623692 -4.48345886 -0.07431147 0 0 Z " fill="#FDF972" transform="translate(59.32421875,122.70703125)"/>
<path d="M0 0 C0.67671753 -0.00287018 1.35343506 -0.00574036 2.05065918 -0.00869751 C3.47958209 -0.01073647 4.90853302 -0.00521819 6.33740234 0.00732422 C8.52374725 0.02338239 10.70824379 0.00747216 12.89453125 -0.01171875 C14.28385824 -0.00973629 15.67318409 -0.00589254 17.0625 0 C18.32642578 0.00338379 19.59035156 0.00676758 20.89257812 0.01025391 C24.03125 0.3984375 24.03125 0.3984375 25.94335938 1.73583984 C27.65164099 4.34656645 27.41024598 6.36646968 27.03125 9.3984375 C25.94335938 11.06103516 25.94335938 11.06103516 24.03125 12.3984375 C20.89257812 12.78662109 20.89257812 12.78662109 17.0625 12.796875 C16.38578247 12.79974518 15.70906494 12.80261536 15.01184082 12.80557251 C13.58291791 12.80761147 12.15396698 12.80209319 10.72509766 12.78955078 C8.53875275 12.77349261 6.35425621 12.78940284 4.16796875 12.80859375 C2.77864176 12.80661129 1.38931591 12.80276754 0 12.796875 C-1.26392578 12.79349121 -2.52785156 12.79010742 -3.83007812 12.78662109 C-6.96875 12.3984375 -6.96875 12.3984375 -8.88085938 11.06103516 C-10.58914099 8.45030855 -10.34774598 6.43040532 -9.96875 3.3984375 C-7.44923871 -0.45207235 -4.30910448 0.01153636 0 0 Z " fill="#FBA904" transform="translate(55.96875,162.6015625)"/>
<path d="M0 0 C1.66259766 1.11523438 1.66259766 1.11523438 3 3 C3.38818359 5.95507813 3.38818359 5.95507813 3.3984375 9.53125 C3.40230469 10.81644531 3.40617187 12.10164062 3.41015625 13.42578125 C3.40387207 14.09432129 3.39758789 14.76286133 3.39111328 15.45166016 C3.37505354 17.4931933 3.39096671 19.53274708 3.41015625 21.57421875 C3.40628906 22.85941406 3.40242188 24.14460938 3.3984375 25.46875 C3.39505371 26.64888672 3.39166992 27.82902344 3.38818359 29.04492188 C3 32 3 32 1.66259766 33.88476562 C-0.94157028 35.63158488 -2.95483915 35.38064511 -6 35 C-7.66259766 33.88476562 -7.66259766 33.88476562 -9 32 C-9.38818359 29.04492188 -9.38818359 29.04492188 -9.3984375 25.46875 C-9.40230469 24.18355469 -9.40617187 22.89835937 -9.41015625 21.57421875 C-9.40387207 20.90567871 -9.39758789 20.23713867 -9.39111328 19.54833984 C-9.37505354 17.5068067 -9.39096671 15.46725292 -9.41015625 13.42578125 C-9.40628906 12.14058594 -9.40242188 10.85539062 -9.3984375 9.53125 C-9.39505371 8.35111328 -9.39166992 7.17097656 -9.38818359 5.95507812 C-9 3 -9 3 -7.66259766 1.11523438 C-5.05842972 -0.63158488 -3.04516085 -0.38064511 0 0 Z " fill="#FCA903" transform="translate(34,117)"/>
</svg>
